<svg width="25" height="25" viewBox="0 0 25 25" fill="none" xmlns="http://www.w3.org/2000/svg">
<g clip-path="url(#clip0_460_2228)">
<path d="M24.5 12.5195C24.5 5.89211 19.1274 0.519531 12.5 0.519531C5.87258 0.519531 0.5 5.89211 0.5 12.5195C0.5 18.509 4.8882 23.4735 10.625 24.3738V15.9883H7.57812V12.5195H10.625V9.87578C10.625 6.86828 12.4166 5.20703 15.1576 5.20703C16.4701 5.20703 17.8438 5.44141 17.8438 5.44141V8.39453H16.3306C14.84 8.39453 14.375 9.31961 14.375 10.2695V12.5195H17.7031L17.1711 15.9883H14.375V24.3738C20.1118 23.4735 24.5 18.509 24.5 12.5195Z" fill="#898DFF"/>
</g>
<defs>
<clipPath id="clip0_460_2228">
<rect width="24" height="24" fill="white" transform="translate(0.5 0.519531)"/>
</clipPath>
</defs>
</svg>
