<svg width="25" height="25" viewBox="0 0 25 25" fill="none" xmlns="http://www.w3.org/2000/svg">
<g clip-path="url(#clip0_460_2230)">
<path d="M12.5 2.68047C15.7063 2.68047 16.0859 2.69453 17.3469 2.75078C18.5188 2.80234 19.1516 2.99922 19.5734 3.16328C20.1313 3.37891 20.5344 3.64141 20.9516 4.05859C21.3734 4.48047 21.6313 4.87891 21.8469 5.43672C22.0109 5.85859 22.2078 6.49609 22.2594 7.66328C22.3156 8.9289 22.3297 9.30859 22.3297 12.5102C22.3297 15.7164 22.3156 16.0961 22.2594 17.357C22.2078 18.5289 22.0109 19.1617 21.8469 19.5836C21.6313 20.1414 21.3688 20.5445 20.9516 20.9617C20.5297 21.3836 20.1313 21.6414 19.5734 21.857C19.1516 22.0211 18.5141 22.218 17.3469 22.2695C16.0813 22.3258 15.7016 22.3398 12.5 22.3398C9.29375 22.3398 8.91407 22.3258 7.65313 22.2695C6.48125 22.218 5.84844 22.0211 5.42656 21.857C4.86875 21.6414 4.46563 21.3789 4.04844 20.9617C3.62656 20.5398 3.36875 20.1414 3.15313 19.5836C2.98906 19.1617 2.79219 18.5242 2.74063 17.357C2.68438 16.0914 2.67031 15.7117 2.67031 12.5102C2.67031 9.3039 2.68438 8.92422 2.74063 7.66328C2.79219 6.4914 2.98906 5.85859 3.15313 5.43672C3.36875 4.87891 3.63125 4.47578 4.04844 4.05859C4.47031 3.63672 4.86875 3.37891 5.42656 3.16328C5.84844 2.99922 6.48594 2.80234 7.65313 2.75078C8.91407 2.69453 9.29375 2.68047 12.5 2.68047ZM12.5 0.519531C9.24219 0.519531 8.83438 0.533594 7.55469 0.589844C6.27969 0.646094 5.40313 0.852344 4.64375 1.14766C3.85156 1.45703 3.18125 1.86484 2.51563 2.53516C1.84531 3.20078 1.4375 3.87109 1.12813 4.65859C0.832813 5.42266 0.626563 6.29453 0.570313 7.56953C0.514063 8.8539 0.5 9.26172 0.5 12.5195C0.5 15.7773 0.514063 16.1852 0.570313 17.4648C0.626563 18.7398 0.832813 19.6164 1.12813 20.3758C1.4375 21.168 1.84531 21.8383 2.51563 22.5039C3.18125 23.1695 3.85156 23.582 4.63906 23.8867C5.40313 24.182 6.275 24.3883 7.55 24.4445C8.82969 24.5008 9.2375 24.5148 12.4953 24.5148C15.7531 24.5148 16.1609 24.5008 17.4406 24.4445C18.7156 24.3883 19.5922 24.182 20.3516 23.8867C21.1391 23.582 21.8094 23.1695 22.475 22.5039C23.1406 21.8383 23.5531 21.168 23.8578 20.3805C24.1531 19.6164 24.3594 18.7445 24.4156 17.4695C24.4719 16.1898 24.4859 15.782 24.4859 12.5242C24.4859 9.26641 24.4719 8.85859 24.4156 7.5789C24.3594 6.30391 24.1531 5.42734 23.8578 4.66797C23.5625 3.87109 23.1547 3.20078 22.4844 2.53516C21.8188 1.86953 21.1484 1.45703 20.3609 1.15234C19.5969 0.857031 18.725 0.650781 17.45 0.594531C16.1656 0.533594 15.7578 0.519531 12.5 0.519531Z" fill="#898DFF"/>
<path d="M12.5 6.35547C9.09688 6.35547 6.33594 9.11641 6.33594 12.5195C6.33594 15.9227 9.09688 18.6836 12.5 18.6836C15.9031 18.6836 18.6641 15.9227 18.6641 12.5195C18.6641 9.11641 15.9031 6.35547 12.5 6.35547ZM12.5 16.518C10.2922 16.518 8.50156 14.7273 8.50156 12.5195C8.50156 10.3117 10.2922 8.52109 12.5 8.52109C14.7078 8.52109 16.4984 10.3117 16.4984 12.5195C16.4984 14.7273 14.7078 16.518 12.5 16.518Z" fill="#898DFF"/>
<path d="M20.3469 6.11167C20.3469 6.90855 19.7 7.55074 18.9078 7.55074C18.1109 7.55074 17.4688 6.90386 17.4688 6.11167C17.4688 5.3148 18.1156 4.67261 18.9078 4.67261C19.7 4.67261 20.3469 5.31948 20.3469 6.11167Z" fill="#898DFF"/>
</g>
<defs>
<clipPath id="clip0_460_2230">
<rect width="24" height="24" fill="white" transform="translate(0.5 0.519531)"/>
</clipPath>
</defs>
</svg>
