<svg width="25" height="25" viewBox="0 0 25 25" fill="none" xmlns="http://www.w3.org/2000/svg">
<g clip-path="url(#clip0_460_2235)">
<path d="M24.2609 7.71958C24.2609 7.71958 24.0266 6.06489 23.3047 5.33833C22.3906 4.38208 21.3688 4.37739 20.9 4.32114C17.5438 4.07739 12.5047 4.07739 12.5047 4.07739H12.4953C12.4953 4.07739 7.45625 4.07739 4.1 4.32114C3.63125 4.37739 2.60938 4.38208 1.69531 5.33833C0.973438 6.06489 0.74375 7.71958 0.74375 7.71958C0.74375 7.71958 0.5 9.66489 0.5 11.6055V13.4243C0.5 15.3649 0.739062 17.3102 0.739062 17.3102C0.739062 17.3102 0.973437 18.9649 1.69062 19.6915C2.60469 20.6477 3.80469 20.6149 4.33906 20.718C6.26094 20.9008 12.5 20.9571 12.5 20.9571C12.5 20.9571 17.5438 20.9477 20.9 20.7086C21.3688 20.6524 22.3906 20.6477 23.3047 19.6915C24.0266 18.9649 24.2609 17.3102 24.2609 17.3102C24.2609 17.3102 24.5 15.3696 24.5 13.4243V11.6055C24.5 9.66489 24.2609 7.71958 24.2609 7.71958ZM10.0203 15.6321V8.88677L16.5031 12.2711L10.0203 15.6321Z" fill="#898DFF"/>
</g>
<defs>
<clipPath id="clip0_460_2235">
<rect width="24" height="24" fill="white" transform="translate(0.5 0.519531)"/>
</clipPath>
</defs>
</svg>
